# xmcd
#
# Track frame offsets: 
#        150
#        17945
#        33312
#        48127
#        66525
#        82142
#        113937
#        129540
#        144362
#        162862
#
# Disc length: 2338 seconds
#
# Revision: 0
# Processed by: cddbd v1.5.2PL0 Copyright (c) Steve Scherf et al.
# Submitted via: ExactAudioCopy v1.0b3
#
DISCID=8909200a
DTITLE=Chuck Armstrong - Shackin' Up
DYEAR=1976
DGENRE=Soul
TTITLE0=Shackin' Up
TTITLE1=Goodness Gracious
TTITLE2=I'm A Lonely Man
TTITLE3=Nightmare
TTITLE4=She Had The Right
TTITLE5=You Got To Deal With It (This Superworld)
TTITLE6=I'm Coming Home
TTITLE7=Misleading Information
TTITLE8=Give Me All Your Sweet Lovin'
TTITLE9=Sweet Foxy Woman
EXTD=
EXTT0=
EXTT1=
EXTT2=
EXTT3=
EXTT4=
EXTT5=
EXTT6=
EXTT7=
EXTT8=
EXTT9=
PLAYORDER=
